HIERARCHY
ROOT Hips
{
	OFFSET -3.958830 18.904000 13.208200
	CHANNELS 6 Xposition Yposition Zposition Zrotation Yrotation Xrotation 
	JOINT LHipJoint
	{
		OFFSET 0.000000 0.000000 0.000000
		CHANNELS 3 Zrotation Yrotation Xrotation
		JOINT LeftUpLeg
		{
			OFFSET 1.800000 -1.400000 0.085000
			CHANNELS 3 Zrotation Yrotation Xrotation
			JOINT LeftLeg
			{
				OFFSET 2.215000 -6.000000 0.000000
				CHANNELS 3 Zrotation Yrotation Xrotation
				JOINT LeftFoot
				{
					OFFSET 2.500000 -6.900000 0.000000
					CHANNELS 3 Zrotation Yrotation Xrotation
					JOINT LeftToeBase
					{
						OFFSET 0.200000 -0.500000 1.950000
						CHANNELS 3 Zrotation Yrotation Xrotation
						End Site
						{
							OFFSET 0.000000 0.000000 0.000000
						}
					}
				}
			}
		}
	}
	JOINT RHipJoint
	{
		OFFSET 0.000000 0.000000 0.000000
		CHANNELS 3 Zrotation Yrotation Xrotation
		JOINT RightUpLeg
		{
			OFFSET -1.800000 -1.400000 0.085000
			CHANNELS 3 Zrotation Yrotation Xrotation
			JOINT RightLeg
			{
				OFFSET -2.215000 -6.000000 0.000000
				CHANNELS 3 Zrotation Yrotation Xrotation
				JOINT RightFoot
				{
					OFFSET -2.500000 -6.900000 0.000000
					CHANNELS 3 Zrotation Yrotation Xrotation
					JOINT RightToeBase
					{
						OFFSET -0.200000 -0.500000 1.950000
						CHANNELS 3 Zrotation Yrotation Xrotation
						End Site
						{
							OFFSET 0.000000 0.000000 0.000000
						}
					}
				}
			}
		}
	}
	JOINT LowerBack
	{
		OFFSET 0.000000 0.000000 0.000000
		CHANNELS 3 Zrotation Yrotation Xrotation
		JOINT Spine
		{
			OFFSET -0.087000 1.940000 -0.288900
			CHANNELS 3 Zrotation Yrotation Xrotation
			JOINT Spine1
			{
				OFFSET 0.000000 1.950000 0.060000
				CHANNELS 3 Zrotation Yrotation Xrotation
				JOINT Neck
				{
					OFFSET 0.000000 0.000000 0.000000
					CHANNELS 3 Zrotation Yrotation Xrotation
					JOINT Neck1
					{
						OFFSET 0.000000 1.600000 0.340000
						CHANNELS 3 Zrotation Yrotation Xrotation
						JOINT Head
						{
							OFFSET 0.000000 1.667000 -0.240000
							CHANNELS 3 Zrotation Yrotation Xrotation
							End Site
							{
								OFFSET 0.000000 0.000000 0.000000
							}
						}
					}
				}
				JOINT LeftShoulder
				{
					OFFSET 0.000000 0.000000 0.000000
					CHANNELS 3 Zrotation Yrotation Xrotation
					JOINT LeftArm
					{
						OFFSET 2.700000 1.550000 -0.730000
						CHANNELS 3 Zrotation Yrotation Xrotation
						JOINT LeftForeArm
						{
							OFFSET 5.450000 0.000000 0.000000
							CHANNELS 3 Zrotation Yrotation Xrotation
							JOINT LeftHand
							{
								OFFSET 3.450000 0.000000 0.000000
								CHANNELS 3 Zrotation Yrotation Xrotation
								JOINT LeftHandIndex1
								{
									OFFSET 0.750000 0.000000 0.000000
									CHANNELS 3 Zrotation Yrotation Xrotation
									End Site
									{
										OFFSET 0.000000 0.000000 0.000000
									}
								}
							}
						}
					}
				}
				JOINT RightShoulder
				{
					OFFSET 0.000000 0.000000 0.000000
					CHANNELS 3 Zrotation Yrotation Xrotation
					JOINT RightArm
					{
						OFFSET -2.700000 1.550000 -0.730000
						CHANNELS 3 Zrotation Yrotation Xrotation
						JOINT RightForeArm
						{
							OFFSET -5.450000 0.000000 0.000000
							CHANNELS 3 Zrotation Yrotation Xrotation
							JOINT RightHand
							{
								OFFSET -3.450000 0.000000 0.000000
								CHANNELS 3 Zrotation Yrotation Xrotation
								JOINT RightHandIndex1
								{
									OFFSET -0.750000 0.000000 0.000000
									CHANNELS 3 Zrotation Yrotation Xrotation
									End Site
									{
										OFFSET 0.000000 0.000000 0.000000
									}
								}
							}
						}
					}
				}
			}
		}
	}
}
MOTION
Frames: 10
Frame Time: 0.016667
-1.451930 18.355980 -5.775950 -11.512471 11.727894 2.133614 -14.649547 13.355326 3.034204 -4.034039 -1.990346 -18.225080 8.950271 1.981204 22.120972 -0.674557 3.654580 3.481676 -0.206970 -0.420850 -0.482380 18.541971 -12.382146 2.661026 -4.662400 6.958219 -0.913876 -15.369649 -1.500012 75.547873 -2.224753 -11.443673 0.743095 -0.265290 0.837200 0.445060 -5.099327 0.241445 -7.687515 19.160195 4.254744 8.788231 -6.308974 6.076331 5.140421 2.939697 -2.140543 -15.177148 -7.176792 -0.173078 51.017902 2.911960 -7.532540 -4.845570 -32.270173 -22.844648 7.318166 -50.810250 -4.922261 1.729802 -2.365303 3.670780 -0.531358 -4.088529 2.508693 0.725060 0.257310 0.064700 0.311670 25.811112 27.633440 12.435139 51.363529 6.236868 0.092318 -0.132328 -1.580755 1.404754 2.322740 -0.889785 -0.341400 0.529420 0.464850 0.162230 
-1.470380 18.230630 -5.674440 -11.928763 11.174492 2.385949 -14.650071 13.384425 2.964675 -3.553155 -1.872082 -17.487475 8.072421 2.303037 22.651636 -0.695630 3.833199 3.432673 -0.242090 -0.493270 -0.466370 18.561395 -12.407700 2.577413 -4.979742 7.074133 -1.729095 -19.460881 1.712297 79.036832 -2.385233 -12.034457 0.579515 -0.285030 0.854500 0.459470 -5.094658 0.220055 -7.484676 19.513661 3.987243 7.884307 -5.548964 5.337539 4.311299 3.089909 -2.208269 -13.591751 -6.962495 -0.203504 48.095595 1.363530 -6.430780 -4.919710 -32.330135 -20.306239 6.145307 -54.002563 -5.438220 1.217653 -2.991897 1.465493 -0.671384 -4.122689 2.493314 0.735680 0.283870 0.039060 0.287710 25.444596 24.748631 11.603364 53.472319 4.517043 -1.445311 -2.587413 0.230274 1.156794 2.292600 -0.907344 -0.378810 0.522810 0.490830 0.130030 
-1.499610 18.091000 -5.559640 -12.934021 9.554178 3.129992 -14.626332 13.361071 2.811555 -1.706158 -1.533450 -16.544884 4.924026 3.260468 21.767443 -0.739720 3.948351 3.409120 -0.292400 -0.591680 -0.461510 18.606182 -12.435633 2.543725 -5.763969 7.617058 -3.184451 -22.197769 3.898479 84.140764 -2.580943 -12.887101 0.353720 -0.316500 0.885330 0.489460 -5.115679 0.368686 -7.274487 20.101161 3.734395 6.801913 -4.881516 4.605146 3.365036 3.312647 -1.706028 -11.892560 -5.154986 -0.605494 44.039078 -0.562160 -4.995170 -4.455290 -31.692874 -17.129397 5.164233 -56.768693 -5.226762 -0.041320 -4.590151 -3.094348 -0.987163 -4.173593 2.500157 0.726440 0.338430 -0.010810 0.258340 24.174678 20.989770 10.183945 55.558276 4.061971 -2.557205 -4.378830 2.090980 0.792245 2.257859 -0.937458 -0.414940 0.491120 0.528830 0.091760 
-1.546650 17.963550 -5.492600 -14.520723 5.544281 4.424299 -14.535537 13.140370 2.535856 1.072011 -0.921747 -15.439192 1.304221 4.316654 19.664477 -0.739993 4.093252 3.440525 -0.404050 -0.693640 -0.612120 18.765667 -12.354328 2.680435 -6.838691 9.816912 -9.220989 -24.535463 7.043925 88.829353 -2.709282 -13.825969 0.151102 -0.326220 1.087840 0.492580 -5.324859 0.862106 -7.077562 22.035604 3.230146 5.957048 -5.135423 3.900994 3.954025 3.182607 -2.506247 -10.568487 -5.280699 0.872933 37.656809 -0.692300 -3.510200 -1.723350 -29.471694 -15.136118 4.743682 -59.563023 -5.687634 -1.673769 -4.880242 -8.926895 -1.328886 -4.304286 2.532779 0.597280 0.493950 -0.163750 0.298130 22.158919 19.342772 8.875801 56.124293 6.798484 -1.448221 -3.467745 0.603654 0.799585 2.252470 -1.004759 -0.477750 0.528870 0.593200 0.141710 
-1.590480 17.847670 -5.384310 -14.864763 4.355840 6.002037 -14.575864 13.016892 2.458811 2.592265 -0.710827 -14.777248 -1.599169 5.072506 18.011122 -0.680145 4.258849 3.428725 -0.506270 -0.794940 -0.702170 18.775141 -12.231679 2.715164 -8.031112 10.617209 -12.359260 -28.003751 11.023688 93.751962 -2.947366 -15.012583 -0.105839 -0.364990 1.204090 0.510020 -5.230266 0.913384 -6.979048 21.371326 3.148436 5.035404 -4.163190 3.529982 3.094421 2.723944 -1.698008 -9.495548 -3.360866 0.294536 32.892848 -1.430500 -2.969970 0.770630 -27.079336 -12.259831 4.272951 -61.154780 -5.412082 -3.270134 -7.851685 -14.866642 -1.328927 -4.413305 2.582152 0.473450 0.610540 -0.270570 0.295760 20.674502 15.469928 7.353158 57.434130 6.449907 -2.086671 -4.152852 2.441768 0.388458 2.237513 -1.051023 -0.492940 0.509470 0.639490 0.171690 
-1.602250 17.800970 -5.311350 -14.570780 4.426927 6.436467 -14.645411 13.035821 2.452176 2.372432 -0.639523 -14.087193 -2.230675 5.171941 17.254232 -0.633424 4.286654 3.432219 -0.538290 -0.798050 -0.751380 18.740307 -12.000896 2.785849 -9.758742 10.518695 -17.355613 -29.489554 12.137684 94.778650 -3.015809 -15.424789 -0.191996 -0.374620 1.250740 0.522970 -5.076127 0.494613 -7.070081 20.806722 1.821177 5.726874 -3.331912 2.237142 2.889583 2.370720 -1.405777 -9.318790 -2.889908 0.539946 31.847312 -1.255850 -2.610130 1.108650 -25.531577 -11.677586 4.388246 -61.530839 -5.526195 -4.324947 -10.498952 -19.276698 -1.047727 -4.441539 2.617944 0.419200 0.655620 -0.291480 0.299250 19.905413 14.139640 6.644937 57.166233 6.723048 -2.634706 -4.962728 4.128016 0.067918 2.217564 -1.044998 -0.474510 0.514750 0.658870 0.201510 
-1.593280 17.778930 -5.224010 -14.816069 4.093491 7.428057 -14.691085 12.895329 2.383888 2.836591 -0.647774 -13.650627 -3.637815 5.419889 16.163028 -0.612070 4.403145 3.433219 -0.577790 -0.845300 -0.777120 18.769662 -11.675408 2.986297 -9.443177 10.627715 -22.100464 -29.913582 12.187094 96.190499 -3.038239 -15.751231 -0.273828 -0.379540 1.324170 0.543720 -5.034133 0.296301 -7.126454 21.335466 0.820539 5.657715 -2.742635 1.135888 2.839361 2.206269 -1.103291 -8.866064 -2.217621 0.658386 29.745732 -2.425890 -1.706350 2.685120 -23.759595 -10.324028 4.139894 -62.229328 -6.201238 -4.708770 -12.347984 -23.267675 -0.650743 -4.511780 2.664847 0.354930 0.733430 -0.348310 0.309550 18.506462 11.970475 5.748780 57.490270 6.917814 -3.506365 -5.860370 7.407564 -0.563127 2.170265 -1.084868 -0.493800 0.512440 0.672660 0.211230 
-1.587610 17.771830 -5.145030 -15.325776 4.047031 8.042740 -14.732191 12.807472 2.257146 3.464474 -0.632590 -13.417926 -4.148048 5.592026 16.090038 -0.612523 4.529469 3.411273 -0.573560 -0.827140 -0.802330 18.808180 -11.279139 3.243107 -8.387121 10.629688 -26.802243 -29.437335 10.814039 98.116955 -3.037048 -15.914437 -0.320088 -0.344590 1.379740 0.542850 -5.020496 -0.092479 -7.186040 22.533467 -0.439764 5.817499 -2.291195 -0.167824 3.305585 1.692827 -1.375246 -8.473291 -2.832782 1.053759 28.722770 -2.292500 -1.609640 3.047650 -21.966147 -9.898049 3.835266 -62.017107 -8.613084 -3.680680 -13.986826 -25.706604 -0.119290 -4.547382 2.715252 0.312440 0.776650 -0.388160 0.331850 17.838119 10.745606 5.103708 56.667602 7.319431 -4.304305 -7.178509 10.680657 -1.216040 2.111345 -1.116238 -0.509140 0.537000 0.675320 0.228410 
-1.564030 17.790260 -5.105420 -16.037010 4.298753 8.498404 -14.767815 12.618445 2.172171 4.398079 -0.714020 -13.110141 -5.742205 5.954584 15.476874 -0.610993 4.655540 3.333454 -0.528540 -0.771970 -0.734480 18.853537 -10.773298 3.669112 -7.084258 11.173966 -32.888224 -27.653557 7.870501 98.372863 -2.945921 -15.629721 -0.302097 -0.313800 1.315990 0.555220 -5.026535 -0.392742 -7.424125 24.184382 -1.522936 6.857929 -1.968948 -1.056021 4.035514 1.708972 -1.263890 -8.767158 -2.808623 1.075711 29.027383 -3.437230 -0.681850 1.850100 -20.639992 -10.910642 4.264391 -61.016456 -10.205864 -3.950100 -16.556237 -32.126942 0.911021 -4.509053 2.784546 0.326990 0.760320 -0.350570 0.304110 16.544509 11.119578 5.071777 56.123863 8.029008 -5.026239 -10.094840 12.941022 -1.837466 2.069800 -1.141941 -0.489010 0.516250 0.659300 0.198110 
-1.555920 17.802010 -5.098180 -16.314476 4.931345 8.607985 -14.805209 12.523663 2.098513 4.545520 -0.948710 -13.519491 -5.830548 6.105935 16.457363 -0.705125 4.749691 3.247379 -0.473650 -0.745190 -0.614620 18.871959 -10.295661 4.132869 -6.311466 11.399553 -39.248562 -24.752891 3.392141 97.190933 -2.791798 -15.042116 -0.231865 -0.287430 1.212820 0.536270 -4.994346 -0.795651 -7.722365 25.543248 -2.914337 9.120816 -2.578452 -1.734192 4.494620 2.003764 -1.087268 -9.334004 -2.804365 1.016044 30.442443 -3.732300 -0.172370 -1.337460 -19.738843 -12.590442 4.836156 -57.984928 -11.151242 -4.899737 -19.922578 -41.209736 2.785671 -4.417207 2.789417 0.453500 0.681950 -0.281090 0.244260 15.053672 12.270784 5.421796 56.772159 8.557319 -6.042688 -12.456344 15.352729 -2.410288 2.003381 -1.084992 -0.519980 0.542870 0.662670 0.116040 
